<mxfile host="Electron" modified="2024-02-25T07:18:55.528Z" agent="Mozilla/5.0 (Windows NT 10.0; Win64; x64) AppleWebKit/537.36 (KHTML, like Gecko) draw.io/23.1.5 Chrome/120.0.6099.109 Electron/28.1.0 Safari/537.36" etag="dAQzgWijkbqYABT3H-WH" version="23.1.5" type="device">
  <diagram name="Page-1" id="NtCflW05Jghv_j8pnRE_">
    <mxGraphModel dx="1615" dy="1177" grid="1" gridSize="10" guides="1" tooltips="1" connect="1" arrows="1" fold="1" page="1" pageScale="1" pageWidth="850" pageHeight="1100" background="none" math="0" shadow="0">
      <root>
        <mxCell id="0" />
        <mxCell id="1" parent="0" />
        <mxCell id="3XkGKFSxGli2wWCiv0Db-1" value="Actor" style="shape=umlActor;verticalLabelPosition=bottom;verticalAlign=top;html=1;outlineConnect=0;labelBackgroundColor=none;rounded=1;" parent="1" vertex="1">
          <mxGeometry x="15" y="390" width="110" height="210" as="geometry" />
        </mxCell>
        <mxCell id="3XkGKFSxGli2wWCiv0Db-3" value="&lt;font style=&quot;font-size: 14px;&quot;&gt;Registration&lt;/font&gt;" style="ellipse;whiteSpace=wrap;html=1;" parent="1" vertex="1">
          <mxGeometry x="399" y="10" width="150" height="50" as="geometry" />
        </mxCell>
        <mxCell id="3XkGKFSxGli2wWCiv0Db-5" value="&lt;font style=&quot;font-size: 14px;&quot;&gt;Login&lt;/font&gt;" style="ellipse;whiteSpace=wrap;html=1;" parent="1" vertex="1">
          <mxGeometry x="399" y="100" width="150" height="50" as="geometry" />
        </mxCell>
        <mxCell id="3XkGKFSxGli2wWCiv0Db-6" value="&lt;font style=&quot;font-size: 14px;&quot;&gt;Add Restaurants&lt;/font&gt;" style="ellipse;whiteSpace=wrap;html=1;" parent="1" vertex="1">
          <mxGeometry x="399" y="190" width="150" height="50" as="geometry" />
        </mxCell>
        <mxCell id="3XkGKFSxGli2wWCiv0Db-7" value="&lt;font style=&quot;font-size: 14px;&quot;&gt;Manage Restaurants&lt;/font&gt;" style="ellipse;whiteSpace=wrap;html=1;" parent="1" vertex="1">
          <mxGeometry x="399" y="280" width="150" height="50" as="geometry" />
        </mxCell>
        <mxCell id="3XkGKFSxGli2wWCiv0Db-8" value="&lt;font style=&quot;font-size: 14px;&quot;&gt;Add Menu&lt;/font&gt;" style="ellipse;whiteSpace=wrap;html=1;" parent="1" vertex="1">
          <mxGeometry x="399" y="370" width="150" height="50" as="geometry" />
        </mxCell>
        <mxCell id="3XkGKFSxGli2wWCiv0Db-9" value="&lt;font style=&quot;font-size: 14px;&quot;&gt;Manage Menu&lt;/font&gt;" style="ellipse;whiteSpace=wrap;html=1;" parent="1" vertex="1">
          <mxGeometry x="399" y="460" width="150" height="50" as="geometry" />
        </mxCell>
        <mxCell id="3XkGKFSxGli2wWCiv0Db-10" value="&lt;font style=&quot;font-size: 14px;&quot;&gt;Add Table&lt;/font&gt;" style="ellipse;whiteSpace=wrap;html=1;" parent="1" vertex="1">
          <mxGeometry x="399" y="550" width="150" height="50" as="geometry" />
        </mxCell>
        <mxCell id="3XkGKFSxGli2wWCiv0Db-11" value="&lt;font style=&quot;font-size: 14px;&quot;&gt;Manage Table&lt;/font&gt;" style="ellipse;whiteSpace=wrap;html=1;" parent="1" vertex="1">
          <mxGeometry x="399" y="640" width="150" height="50" as="geometry" />
        </mxCell>
        <mxCell id="3XkGKFSxGli2wWCiv0Db-12" value="&lt;span style=&quot;font-size: 14px;&quot;&gt;Remove User/Customer&lt;/span&gt;" style="ellipse;whiteSpace=wrap;html=1;" parent="1" vertex="1">
          <mxGeometry x="399" y="730" width="150" height="50" as="geometry" />
        </mxCell>
        <mxCell id="3XkGKFSxGli2wWCiv0Db-13" value="&lt;span style=&quot;font-size: 14px;&quot;&gt;View Customer &lt;br&gt;reviews&lt;/span&gt;" style="ellipse;whiteSpace=wrap;html=1;" parent="1" vertex="1">
          <mxGeometry x="399" y="820" width="150" height="50" as="geometry" />
        </mxCell>
        <mxCell id="3XkGKFSxGli2wWCiv0Db-14" value="&lt;font style=&quot;font-size: 14px;&quot;&gt;View / Manage&lt;br&gt;&amp;nbsp;Users&lt;/font&gt;" style="ellipse;whiteSpace=wrap;html=1;" parent="1" vertex="1">
          <mxGeometry x="399" y="910" width="150" height="50" as="geometry" />
        </mxCell>
        <mxCell id="3XkGKFSxGli2wWCiv0Db-15" value="&lt;font style=&quot;font-size: 14px;&quot;&gt;Logout&lt;/font&gt;" style="ellipse;whiteSpace=wrap;html=1;" parent="1" vertex="1">
          <mxGeometry x="399" y="1000" width="150" height="50" as="geometry" />
        </mxCell>
        <mxCell id="3XkGKFSxGli2wWCiv0Db-16" value="Admin" style="rounded=0;whiteSpace=wrap;html=1;" parent="1" vertex="1">
          <mxGeometry x="10" y="610" width="120" height="40" as="geometry" />
        </mxCell>
        <mxCell id="3XkGKFSxGli2wWCiv0Db-17" value="" style="endArrow=none;html=1;rounded=0;entryX=0;entryY=0.5;entryDx=0;entryDy=0;exitX=1;exitY=0.3333333333333333;exitDx=0;exitDy=0;exitPerimeter=0;" parent="1" source="3XkGKFSxGli2wWCiv0Db-1" target="3XkGKFSxGli2wWCiv0Db-3" edge="1">
          <mxGeometry width="50" height="50" relative="1" as="geometry">
            <mxPoint x="150" y="230" as="sourcePoint" />
            <mxPoint x="200" y="180" as="targetPoint" />
          </mxGeometry>
        </mxCell>
        <mxCell id="3XkGKFSxGli2wWCiv0Db-19" value="" style="endArrow=none;html=1;rounded=0;entryX=0;entryY=0.5;entryDx=0;entryDy=0;exitX=1;exitY=0.3333333333333333;exitDx=0;exitDy=0;exitPerimeter=0;" parent="1" source="3XkGKFSxGli2wWCiv0Db-1" target="3XkGKFSxGli2wWCiv0Db-5" edge="1">
          <mxGeometry width="50" height="50" relative="1" as="geometry">
            <mxPoint x="710" y="270" as="sourcePoint" />
            <mxPoint x="760" y="220" as="targetPoint" />
          </mxGeometry>
        </mxCell>
        <mxCell id="3XkGKFSxGli2wWCiv0Db-20" value="" style="endArrow=none;html=1;rounded=0;entryX=0;entryY=0.5;entryDx=0;entryDy=0;exitX=1;exitY=0.3333333333333333;exitDx=0;exitDy=0;exitPerimeter=0;" parent="1" source="3XkGKFSxGli2wWCiv0Db-1" target="3XkGKFSxGli2wWCiv0Db-6" edge="1">
          <mxGeometry width="50" height="50" relative="1" as="geometry">
            <mxPoint x="210" y="460" as="sourcePoint" />
            <mxPoint x="260" y="410" as="targetPoint" />
          </mxGeometry>
        </mxCell>
        <mxCell id="3XkGKFSxGli2wWCiv0Db-21" value="" style="endArrow=none;html=1;rounded=0;entryX=0;entryY=0.5;entryDx=0;entryDy=0;exitX=1;exitY=0.3333333333333333;exitDx=0;exitDy=0;exitPerimeter=0;" parent="1" source="3XkGKFSxGli2wWCiv0Db-1" target="3XkGKFSxGli2wWCiv0Db-7" edge="1">
          <mxGeometry width="50" height="50" relative="1" as="geometry">
            <mxPoint x="230" y="480" as="sourcePoint" />
            <mxPoint x="280" y="430" as="targetPoint" />
          </mxGeometry>
        </mxCell>
        <mxCell id="3XkGKFSxGli2wWCiv0Db-22" value="" style="endArrow=none;html=1;rounded=0;entryX=0;entryY=0.5;entryDx=0;entryDy=0;exitX=1;exitY=0.3333333333333333;exitDx=0;exitDy=0;exitPerimeter=0;" parent="1" source="3XkGKFSxGli2wWCiv0Db-1" target="3XkGKFSxGli2wWCiv0Db-8" edge="1">
          <mxGeometry width="50" height="50" relative="1" as="geometry">
            <mxPoint x="240" y="510" as="sourcePoint" />
            <mxPoint x="290" y="460" as="targetPoint" />
          </mxGeometry>
        </mxCell>
        <mxCell id="3XkGKFSxGli2wWCiv0Db-23" value="" style="endArrow=none;html=1;rounded=0;entryX=0;entryY=0.5;entryDx=0;entryDy=0;exitX=1;exitY=0.3333333333333333;exitDx=0;exitDy=0;exitPerimeter=0;" parent="1" source="3XkGKFSxGli2wWCiv0Db-1" target="3XkGKFSxGli2wWCiv0Db-9" edge="1">
          <mxGeometry width="50" height="50" relative="1" as="geometry">
            <mxPoint x="230" y="530" as="sourcePoint" />
            <mxPoint x="280" y="480" as="targetPoint" />
          </mxGeometry>
        </mxCell>
        <mxCell id="3XkGKFSxGli2wWCiv0Db-24" value="" style="endArrow=none;html=1;rounded=0;entryX=0;entryY=0.5;entryDx=0;entryDy=0;exitX=1;exitY=0.3333333333333333;exitDx=0;exitDy=0;exitPerimeter=0;" parent="1" source="3XkGKFSxGli2wWCiv0Db-1" target="3XkGKFSxGli2wWCiv0Db-10" edge="1">
          <mxGeometry width="50" height="50" relative="1" as="geometry">
            <mxPoint x="270" y="620" as="sourcePoint" />
            <mxPoint x="320" y="570" as="targetPoint" />
          </mxGeometry>
        </mxCell>
        <mxCell id="3XkGKFSxGli2wWCiv0Db-25" value="" style="endArrow=none;html=1;rounded=0;entryX=0;entryY=0.5;entryDx=0;entryDy=0;exitX=1;exitY=0.3333333333333333;exitDx=0;exitDy=0;exitPerimeter=0;" parent="1" source="3XkGKFSxGli2wWCiv0Db-1" target="3XkGKFSxGli2wWCiv0Db-11" edge="1">
          <mxGeometry width="50" height="50" relative="1" as="geometry">
            <mxPoint x="260" y="690" as="sourcePoint" />
            <mxPoint x="310" y="640" as="targetPoint" />
          </mxGeometry>
        </mxCell>
        <mxCell id="3XkGKFSxGli2wWCiv0Db-26" value="" style="endArrow=none;html=1;rounded=0;entryX=0;entryY=0.5;entryDx=0;entryDy=0;exitX=1;exitY=0.3333333333333333;exitDx=0;exitDy=0;exitPerimeter=0;" parent="1" source="3XkGKFSxGli2wWCiv0Db-1" target="3XkGKFSxGli2wWCiv0Db-12" edge="1">
          <mxGeometry width="50" height="50" relative="1" as="geometry">
            <mxPoint x="230" y="790" as="sourcePoint" />
            <mxPoint x="280" y="740" as="targetPoint" />
          </mxGeometry>
        </mxCell>
        <mxCell id="3XkGKFSxGli2wWCiv0Db-27" value="" style="endArrow=none;html=1;rounded=0;entryX=0;entryY=0.5;entryDx=0;entryDy=0;exitX=1;exitY=0.3333333333333333;exitDx=0;exitDy=0;exitPerimeter=0;" parent="1" source="3XkGKFSxGli2wWCiv0Db-1" target="3XkGKFSxGli2wWCiv0Db-13" edge="1">
          <mxGeometry width="50" height="50" relative="1" as="geometry">
            <mxPoint x="170" y="860" as="sourcePoint" />
            <mxPoint x="220" y="810" as="targetPoint" />
          </mxGeometry>
        </mxCell>
        <mxCell id="3XkGKFSxGli2wWCiv0Db-28" value="" style="endArrow=none;html=1;rounded=0;entryX=0;entryY=0.5;entryDx=0;entryDy=0;exitX=1;exitY=0.3333333333333333;exitDx=0;exitDy=0;exitPerimeter=0;" parent="1" source="3XkGKFSxGli2wWCiv0Db-1" target="3XkGKFSxGli2wWCiv0Db-14" edge="1">
          <mxGeometry width="50" height="50" relative="1" as="geometry">
            <mxPoint x="250" y="790" as="sourcePoint" />
            <mxPoint x="300" y="740" as="targetPoint" />
          </mxGeometry>
        </mxCell>
        <mxCell id="3XkGKFSxGli2wWCiv0Db-29" value="" style="endArrow=none;html=1;rounded=0;entryX=0;entryY=0.5;entryDx=0;entryDy=0;exitX=1;exitY=0.3333333333333333;exitDx=0;exitDy=0;exitPerimeter=0;" parent="1" source="3XkGKFSxGli2wWCiv0Db-1" target="3XkGKFSxGli2wWCiv0Db-15" edge="1">
          <mxGeometry width="50" height="50" relative="1" as="geometry">
            <mxPoint x="160" y="920" as="sourcePoint" />
            <mxPoint x="210" y="870" as="targetPoint" />
          </mxGeometry>
        </mxCell>
        <mxCell id="MKdOZuz_OXrTI6bx9dVR-1" value="" style="swimlane;startSize=0;" parent="1" vertex="1">
          <mxGeometry x="260" width="410" height="1070" as="geometry" />
        </mxCell>
      </root>
    </mxGraphModel>
  </diagram>
</mxfile>
